<svg xmlns="http://www.w3.org/2000/svg" viewBox="0 0 64 64">
  <rect width="64" height="64" rx="16" fill="#07130f" />
  <path
    d="M32 8 52.8 20v24L32 56 11.2 44V20L32 8Z"
    fill="none"
    stroke="#10b981"
    stroke-width="4"
  />
  <path
    d="M31.9 18c4.5 5.2 8.1 10.8 7.4 16.2-.5 4.4-3.6 7.6-7.4 10.8-3.8-3.2-6.9-6.4-7.4-10.8-.7-5.4 2.9-11 7.4-16.2Z"
    fill="#14f195"
  />
  <path
    d="M32 28c-3.2-3.7-7.7-5.4-13-5.2 1.3 5.7 4.6 9.4 10 11.1m3-5.9c3.2-3.7 7.7-5.4 13-5.2-1.3 5.7-4.6 9.4-10 11.1"
    fill="none"
    stroke="#07130f"
    stroke-linecap="round"
    stroke-width="3"
  />
</svg>
